<?xml version="1.0" encoding="utf-8"?>
<!-- Generator: Adobe Illustrator 24.1.2, SVG Export Plug-In . SVG Version: 6.00 Build 0)  -->
<svg version="1.1" id="Layer_1" xmlns="http://www.w3.org/2000/svg" xmlns:xlink="http://www.w3.org/1999/xlink" x="0px" y="0px"
	 viewBox="0 0 83.3 77.3" style="enable-background:new 0 0 83.3 77.3;" xml:space="preserve">
<style type="text/css">
	.st0{fill:#65C9FF;}
	.st1{fill:none;stroke:#FFFFFF;stroke-width:2;stroke-miterlimit:10;}
	.st2{fill:#3C4F5C;stroke:#1F150A;stroke-miterlimit:10;}
	.st3{fill:none;stroke:#FD9841;stroke-width:4;stroke-miterlimit:10;}
</style>
<circle class="st0" cx="35.8" cy="41.5" r="35.8"/>
<path class="st1" d="M39.5,48C33,46.5,28.3,40.6,22,46c-2.9,1.6-8.4-1-9.4-0.1c-1.3,0.9,0.9,3.7-0.4,4.3c-1.7,0.2-3.9-0.8-3.1,2.1"
	/>
<path class="st2" d="M37.6,62.7c0.6,0.8,1,1.7,1,2.7H27.9c0.1-1,0.5-2,1.1-2.7l0,0C30.9,60.1,35.6,60.2,37.6,62.7L37.6,62.7z"/>
<path class="st2" d="M52.9,47.8c0,7.4-6.6,13.6-15.3,15.1c-1.9-2.6-6.7-2.6-8.6,0c-8.6-1.6-15-7.7-15-15c3.7,0.5,7.7,1.5,10.8,0h4.7
	c5.3,1.2,6.1,0,9,0C41.5,48.9,48.3,47.7,52.9,47.8z"/>
<path class="st1" d="M55.3,47.3c-3.3-1.1-6.8-1.3-10.3-0.7c-3.6-2.1-4.1-0.6-6.6,1.2"/>
<path class="st1" d="M23.7,46c4.3-1.3,7.4-7.5,4.6-11.2c-2-2.5-6.3-2-6.5-3.5c-0.2-1.7,5.5-2.5,6.2-5.5c0.6-2.7-3.3-4.3-2.6-6.1
	c1.8-2.8,9-3.2,11.4-0.6c1.3,2-1.5,4.5,0,6.7s5.6,1.8,5.8,3.2c0.3,1.6-4.8,2.5-6.2,5.5c-1.5,1.5,1.2,7.4,4.2,10.2"/>
<line class="st3" x1="27.1" y1="21.4" x2="82.7" y2="1.9"/>
<line class="st3" x1="31.1" y1="27.4" x2="80.7" y2="2.8"/>
<path class="st1" d="M35.4,20.5c-7.9,49.6-4.9,12.2,16.9,31"/>
</svg>
